<?xml version="1.0" encoding="utf-8"?>
<?xml-stylesheet type="text/xsl" href="rss1.xsl"?>
<rss version="2.0" xmlns:atom="http://www.w3.org/2005/Atom" xmlns:content="http://purl.org/rss/1.0/modules/content/" xmlns:dc="http://purl.org/dc/elements/1.1/" xmlns:media="http://search.yahoo.com/mrss/">
<channel>
 <title>Getty</title>
 <link>http://www.gettyimg.com/</link>
 <atom:link href="http://www.gettyimg.com/" rel="self" type="application/rss+xml" />

 
                <item>
                <title><![CDATA[【HD Live Performances】FEED - MTV Video Music Awards S01E40 2023 - Main Show 1080i HDTV Backhaul MPA2.0 H.264-TrollHD]]></title>
                <link><![CDATA[https://sharemania.us/threads/mtv-video-music-awards-s01e40-2023-main-show-1080i-hdtv-backhaul-mpa2-0-h-264-trollhd.228689/]]></link>
                <description><![CDATA[<article>
<blockquote class="messageText SelectQuoteContainer ugc baseHtml">
<div style="text-align: center"><b><span style="color: #ff0000">MTV Video Music Awards S01E40 2023 - Main Show 1080i HDTV Backhaul MPA2.0 H.264-TrollHD</span></b><br>
<br>
<img src="https://images2.imgbox.com/25/5b/j7JxMsdZ_o.jpg" class="bbCodeImage LbImage" alt="[​IMG]" data-url="https://images2.imgbox.com/25/5b/j7JxMsdZ_o.jpg" style=""><br>
<br>
<div class="ToggleTriggerAnchor bbCodeSpoilerContainer">
<button type="button" class="button bbCodeSpoilerButton ToggleTrigger Tooltip JsOnly" data-target="> .SpoilerTarget"><span>Spoiler: <span class="SpoilerTitle">MediaInfo</span></span></button>
<div class="SpoilerTarget bbCodeSpoilerText">Format : Matroska<br>
Format version : Version 4<br>
File size : 50.9 GiB<br>
Duration : 3 h 2 min<br>
Overall bit rate : 39.9 Mb/s<br>
Encoded date : UTC 2023-09-17 20:14:15<br>
Writing application : mkvmerge v79.0 ('Funeral Pyres') 64-bit<br>
Writing library : libebml v1.4.4 + libmatroska v1.7.1<br>
<br>
Video<br>
ID : 1<br>
Format : AVC<br>
Format/Info : Advanced Video Codec<br>
Format profile : High@L4.1<br>
Format settings : CABAC / 4 Ref Frames<br>
Format settings, CABAC : Yes<br>
Format settings, Reference : 4 frames<br>
Codec ID : V_MPEG4/ISO/AVC<br>
Duration : 3 h 2 min<br>
Bit rate : 39.5 Mb/s<br>
Width : 1 920 pixels<br>
Height : 1 080 pixels<br>
Display aspect ratio : 16:9<br>
Frame rate mode : Variable<br>
Frame rate : 59.940 (59940/1000) FPS<br>
Original frame rate : 29.970 (30000/1001) FPS<br>
Color space : YUV<br>
Chroma subsampling : 4:2:0<br>
Bit depth : 8 bits<br>
Scan type : Interlaced<br>
Scan type, store method : Separated fields<br>
Scan order : Top Field First<br>
Bits/(Pixel*Frame) : 0.318<br>
Stream size : 50.4 GiB (99%)<br>
Default : Yes<br>
Forced : No<br>
Color range : Limited<br>
Color primaries : BT.709<br>
Transfer characteristics : BT.709<br>
Matrix coefficients : BT.709<br>
<br>
Audio<br>
ID : 2<br>
Format : MPEG Audio<br>
Format version : Version 1<br>
Format profile : Layer 2<br>
Codec ID : A_MPEG/L2<br>
Codec ID/Hint : MP2<br>
Duration : 3 h 2 min<br>
Bit rate mode : Constant<br>
Bit rate : 384 kb/s<br>
Channel(s) : 2 channels<br>
Sampling rate : 48.0 kHz<br>
Frame rate : 41.667 FPS (1152 SPF)<br>
Compression mode : Lossy<br>
Stream size : 501 MiB (1%)<br>
Language : English<br>
Default : Yes<br>
Forced : No<br>
<br>
Menu<br>
00:00:09.000 : en:Lil Wayne - Uproar + Kat Food<br>
00:04:21.000 : en:Olivia Rodrigo - Vampire + Get Him Back!<br>
00:20:18.000 : en:Cardi B &amp; Megan Thee Stallion - Bongos<br>
00:23:51.000 : en<img src="styles/default/xenforo/smilies/exciting-48.png" class="mceSmilie" alt=":D" title="Big Grin    :D">emi Lovato - Heart Attack (Rock Version) + Sorry Not Sorry (Rock Version) + Cool for the Summer (Rock Version)<br>
00:31:27.000 : en:Kaliii - Area Codes<br>
00:37:50.000 : en:Anitta - Used to Be + Funk Rave + Casi Casi + Grip<br>
00:43:45.000 : en<img src="styles/default/xenforo/smilies/exciting-48.png" class="mceSmilie" alt=":D" title="Big Grin    :D">oja Cat - Attention + Paint the Town Red + Demons<br>
00:49:27.000 : en:Kaliii - K Toven<br>
00:54:09.000 : en:Shakira - Video Vanguard Medley<br>
01:10:34.000 : en:Nicki Minaj - Last Time I Saw You + Big Difference<br>
01:20:51.000 : en:Karol G - Oki Doki + Tá OK (Remix)<br>
01:25:14.000 : en:Reneé Rapp - Too Well<br>
01:30:23.000 : en<img src="styles/default/xenforo/smilies/exciting-48.png" class="mceSmilie" alt=":D" title="Big Grin    :D">iddy - Global Icon Medley<br>
01:44:16.000 : en:Reneé Rapp - Pretty Girls<br>
01:46:48.000 : en<img src="styles/default/xenforo/smilies/grimace-48.png" class="mceSmilie" alt=":p" title="Stick Out Tongue    :p">eso Pluma - Lady Gaga<br>
01:57:53.000 : en:Stray Kids - S-Class<br>
02:02:17.000 : en:The Warning - More<br>
02:09:39.000 : en:Metro Boomin + Swae Lee + Nav + Future + A Boogie wit da Hoodie - Superhero + Calling<br>
02:19:21.000 : en:Fall Out Boy - We Didn't Start the Fire<br>
02:28:39.000 : en:Tomorrow X Together + Anitta - Back for More<br>
02:32:35.000 : en:The Warning - Evolve<br>
02:34:51.000 : en:Måneskin - Honey (Are U Coming?)<br>
02:41:38.000 : en:Kelsea Ballerini - Penthouse<br>
02:46:27.000 : en:Hip Hop 50th Anniversary Medley</div>
</div><br>
<div class="bbCodeBlock bbCodeVfcHH HiddenContent">
<div class="attribution type">Hidden Content:</div>
<blockquote>You must either reply or click 'Like' to see the hidden information contained here.</blockquote>
</div><span style="font-size: 18px"><span style="color: #ff4d4d">Some files are still uploading, download "Part 1-3" files first!</span><br>
<br>
<span style="color: #ff4d4d">I'm not going to cut anything, don't even write to me about it <img src="styles/default/xenforo/smilies/girl-48.png" class="mceSmilie" alt=":girl:" title="Girl    :girl:"></span></span>​</div>
<div class="messageTextEndMarker">&nbsp;</div>
</blockquote>
</article>]]></description>
                <author><![CDATA[melodie]]></author>
                </item>

                
                <item>
                <title><![CDATA[【Requests】[REQ VID] - BBC Radio 2 in the Park]]></title>
                <link><![CDATA[https://sharemania.us/threads/bbc-radio-2-in-the-park.228691/]]></link>
                <description><![CDATA[<article>
<blockquote class="messageText SelectQuoteContainer ugc baseHtml">
Thank you so so much dear Melodie!!! <img src="styles/default/xenforo/smilies/big_smile-48.png" class="mceSmilie" alt=":)" title="Smile    :)">
<div class="messageTextEndMarker">&nbsp;</div>
</blockquote>
</article>]]></description>
                <author><![CDATA[detroit1]]></author>
                </item>

                
                <item>
                <title><![CDATA[【Cinema Center】MOVIE - Blue Beetle 2023 1080p WEBRip x264 AAC5 1]]></title>
                <link><![CDATA[https://sharemania.us/threads/blue-beetle-2023-1080p-webrip-x264-aac5-1.228690/]]></link>
                <description><![CDATA[<article>
<blockquote class="messageText SelectQuoteContainer ugc baseHtml">
thanks
<div class="messageTextEndMarker">&nbsp;</div>
</blockquote>
</article>]]></description>
                <author><![CDATA[mrsteze]]></author>
                </item>

                
                <item>
                <title><![CDATA[【MASTER &amp; MASTER RIP】MASTER - KEY - Good &amp; Great (Master 1080p)]]></title>
                <link><![CDATA[https://sharemania.us/threads/key-good-great-master-1080p.228692/]]></link>
                <description><![CDATA[<article>
<blockquote class="messageText SelectQuoteContainer ugc baseHtml">
thanks
<div class="messageTextEndMarker">&nbsp;</div>
</blockquote>
</article>]]></description>
                <author><![CDATA[stargamer]]></author>
                </item>

                </channel></rss>